<svg width="18" height="16" viewBox="0 0 18 16" fill="#3A10E5" xmlns="http://www.w3.org/2000/svg">
<path d="M16.5411 6.79659C16.4709 6.7852 16.3999 6.77995 16.3289 6.78087H4.23496L4.49867 6.65822C4.75644 6.53621 4.99095 6.37017 5.19168 6.16759L8.58313 2.77614C9.02979 2.34976 9.10484 1.66384 8.76098 1.15095C8.36077 0.604401 7.59329 0.485731 7.0467 0.885935C7.00255 0.918286 6.96058 0.95355 6.92113 0.991496L0.788326 7.12431C0.309047 7.60305 0.308626 8.37966 0.787368 8.85894C0.787675 8.85924 0.78802 8.85959 0.788326 8.8599L6.92113 14.9927C7.4008 15.471 8.1774 15.47 8.65576 14.9903C8.6934 14.9525 8.72855 14.9124 8.76098 14.8701C9.10484 14.3572 9.02979 13.6712 8.58313 13.2449L5.19782 9.84728C5.01786 9.66713 4.81095 9.51607 4.58453 9.39958L4.21657 9.234H16.2614C16.888 9.25726 17.4377 8.81957 17.5554 8.20369C17.6639 7.53502 17.2097 6.90506 16.5411 6.79659Z" fill="#3A10E5"/>
</svg>
