<svg width="20" height="20" viewBox="0 0 20 20" fill="none" xmlns="http://www.w3.org/2000/svg">
<g clip-path="url(#clip0_870_6093)">
<rect x="0.908203" y="0.90918" width="18.1818" height="18.1818" rx="4" fill="#2AB930"/>
<rect x="0.908203" y="0.90918" width="18.1818" height="18.1818" rx="4" stroke="white"/>
<path d="M7.39182 9.99985C7.24255 9.86561 7.04804 9.79277 6.84731 9.79595C6.64658 9.79913 6.45447 9.8781 6.30953 10.017C6.16459 10.1559 6.07752 10.3445 6.06581 10.5449C6.05409 10.7453 6.11859 10.9427 6.24636 11.0976L8.01227 12.951C8.08621 13.0285 8.17505 13.0904 8.27347 13.1327C8.37188 13.1751 8.47785 13.1972 8.585 13.1976C8.69158 13.1982 8.7972 13.1774 8.89559 13.1364C8.99398 13.0954 9.08312 13.0351 9.15773 12.9589L14.5509 7.39076C14.624 7.31555 14.6816 7.22667 14.7204 7.1292C14.7592 7.03174 14.7784 6.92758 14.7769 6.8227C14.7754 6.71781 14.7533 6.61424 14.7118 6.5179C14.6703 6.42156 14.6102 6.33434 14.535 6.26122C14.4598 6.1881 14.3709 6.1305 14.2734 6.09173C14.176 6.05295 14.0718 6.03376 13.9669 6.03524C13.862 6.03671 13.7585 6.05883 13.6621 6.10034C13.5658 6.14184 13.4786 6.20192 13.4055 6.27713L8.59295 11.2567L7.39182 9.99985Z" fill="white"/>
</g>
<defs>
<clipPath id="clip0_870_6093">
<rect width="20" height="20" fill="white"/>
</clipPath>
</defs>
</svg>
