<svg width="20" height="18" viewBox="0 0 20 18" fill="none" xmlns="http://www.w3.org/2000/svg">
<path d="M1.20212 7.17227C1.28395 7.15899 1.36677 7.15286 1.44964 7.15394H15.5592L15.2516 7.01084C14.9508 6.8685 14.6772 6.67478 14.4431 6.43844L10.4864 2.48176C9.96527 1.98431 9.87771 1.18407 10.2789 0.585694C10.7458 -0.0519459 11.6412 -0.190394 12.2789 0.276511C12.3304 0.314253 12.3793 0.355394 12.4254 0.399666L19.5803 7.55462C20.1395 8.11315 20.14 9.01919 19.5814 9.57835C19.5811 9.57871 19.5807 9.57911 19.5803 9.57947L12.4254 16.7344C11.8658 17.2925 10.9597 17.2912 10.4016 16.7316C10.3577 16.6875 10.3167 16.6407 10.2789 16.5913C9.87771 15.9929 9.96527 15.1927 10.4864 14.6953L14.4359 10.7314C14.6459 10.5212 14.8872 10.345 15.1514 10.2091L15.5807 10.0159H1.52839C0.797373 10.0431 0.156021 9.53242 0.018692 8.81389C-0.107817 8.03377 0.422007 7.29883 1.20212 7.17227Z" fill="currentColor"/>
</svg>
