<svg width="18" height="16" viewBox="0 0 18 16" fill="" xmlns="http://www.w3.org/2000/svg">
<path d="M1.45894 6.79659C1.52909 6.7852 1.60007 6.77995 1.6711 6.78087H13.765L13.5013 6.65822C13.2436 6.53621 13.0091 6.37017 12.8083 6.16759L9.41687 2.77614C8.97021 2.34976 8.89516 1.66384 9.23902 1.15095C9.63923 0.604401 10.4067 0.485731 10.9533 0.885935C10.9975 0.918286 11.0394 0.95355 11.0789 0.991496L17.2117 7.12431C17.691 7.60305 17.6914 8.37966 17.2126 8.85894C17.2123 8.85924 17.212 8.85959 17.2117 8.8599L11.0789 14.9927C10.5992 15.471 9.8226 15.47 9.34424 14.9903C9.3066 14.9525 9.27145 14.9124 9.23902 14.8701C8.89516 14.3572 8.97021 13.6712 9.41687 13.2449L12.8022 9.84728C12.9821 9.66713 13.189 9.51607 13.4155 9.39958L13.7834 9.234H1.7386C1.11202 9.25726 0.562288 8.81957 0.444576 8.20369C0.33614 7.53502 0.790276 6.90506 1.45894 6.79659Z" fill="currentColor"/>
</svg>
