<svg width="18" height="16" viewBox="0 0 18 16" fill="none" xmlns="http://www.w3.org/2000/svg">
<path d="M16.541 6.79673C16.4709 6.78535 16.3999 6.78009 16.3289 6.78101H4.23494L4.49865 6.65836C4.75642 6.53635 4.99092 6.37031 5.19166 6.16773L8.5831 2.77629C9.02976 2.3499 9.10481 1.66399 8.76095 1.15109C8.36075 0.604542 7.59327 0.485872 7.04668 0.886076C7.00252 0.918427 6.96055 0.953691 6.92111 0.991637L0.788303 7.12445C0.309024 7.60319 0.308603 8.3798 0.787345 8.85908C0.787652 8.85939 0.787997 8.85973 0.788303 8.86004L6.92111 14.9929C7.40077 15.4712 8.17738 15.4701 8.65574 14.9904C8.69338 14.9527 8.72853 14.9125 8.76095 14.8702C9.10481 14.3573 9.02976 13.6714 8.5831 13.245L5.19779 9.84742C5.01783 9.66727 4.81093 9.51621 4.58451 9.39973L4.21654 9.23414H16.2614C16.888 9.25741 17.4377 8.81971 17.5554 8.20383C17.6638 7.53516 17.2097 6.9052 16.541 6.79673Z" fill="currentColor"/>
</svg>
