<svg width="40" height="32" viewBox="0 0 40 32" fill="none" xmlns="http://www.w3.org/2000/svg">
<path d="M17.7411 1.69063e-05C19.6381 1.69063e-05 21.4074 1.33607 22.0461 3.47754C22.2806 4.37269 22.3759 5.26974 22.4675 6.13434L22.5532 6.9207C22.8812 9.54505 22.8812 22.4378 22.5532 25.0812L22.4675 25.8962C22.3855 26.7188 22.3016 27.5701 22.0595 28.4786C21.4208 30.6143 19.7182 32 17.785 32C17.724 32 17.663 32 17.5943 31.9981C16.5267 31.9981 15.3656 31.3568 14.7078 30.7976L8.29613 25.5698H5.00354C2.46212 25.5698 0.601333 23.77 0.263875 20.9853C-0.125059 18.2006 -0.0487975 13.4234 0.263875 10.8925C0.631838 8.25673 2.58032 6.43018 5.00354 6.43018H8.29613L14.5858 1.27881C15.3446 0.633696 16.683 -0.00378328 17.7411 1.69063e-05ZM33.2547 0.393019C34.0135 -0.13376 35.0563 0.0590104 35.5768 0.812916C38.429 4.91836 40 10.314 40 15.9998C40 21.6894 38.429 27.0832 35.5768 31.1886C35.2661 31.6372 34.7532 31.9063 34.206 31.9063C33.8667 31.9063 33.5387 31.8032 33.2566 31.6085C32.5016 31.0798 32.3147 30.0396 32.8371 29.2838C35.3042 25.73 36.6636 21.0119 36.6636 15.9998C36.6636 10.9897 35.3042 6.27157 32.8371 2.71772C32.3147 1.96381 32.5016 0.921707 33.2547 0.393019ZM27.5061 5.7927C28.2668 5.26783 29.3058 5.45678 29.8301 6.2126C31.6718 8.86558 32.688 12.3412 32.688 16C32.688 19.6588 31.6718 23.1344 29.8301 25.7874C29.5175 26.2359 29.0065 26.5051 28.4593 26.5051C28.12 26.5051 27.7901 26.402 27.508 26.2073C26.753 25.6786 26.5661 24.6365 27.0904 23.8826C28.5489 21.7812 29.3516 18.9813 29.3516 16C29.3516 13.0168 28.5489 10.2188 27.0904 8.1174C26.5661 7.3635 26.753 6.32139 27.5061 5.7927Z" fill="white"/>
</svg>
